<?xml version="1.0" standalone="no"?><!DOCTYPE svg PUBLIC "-//W3C//DTD SVG 1.1//EN" "http://www.w3.org/Graphics/SVG/1.1/DTD/svg11.dtd"><svg t="1761574180234" class="icon" viewBox="0 0 1024 1024" version="1.1" xmlns="http://www.w3.org/2000/svg" p-id="23373" xmlns:xlink="http://www.w3.org/1999/xlink" width="200" height="200"><path d="M563.45 522.69m-129.76 0a129.76 129.76 0 1 0 259.52 0 129.76 129.76 0 1 0-259.52 0Z" fill="#1677FF" opacity=".35" p-id="23374"></path><path d="M786.73 271m-64.88 0a64.88 64.88 0 1 0 129.76 0 64.88 64.88 0 1 0-129.76 0Z" fill="#1677FF" opacity=".35" p-id="23375"></path><path d="M703.33 830.76m-64.88 0a64.88 64.88 0 1 0 129.76 0 64.88 64.88 0 1 0-129.76 0Z" fill="#1677FF" opacity=".35" p-id="23376"></path><path d="M748.66 355.25c53.99 0 97.74-43.76 97.74-97.74 0-53.91-43.83-97.74-97.74-97.74-53.99 0-97.74 43.76-97.74 97.74 0 15.12 3.44 29.4 9.55 42.15 2.21 4.66 1.22 10.23-2.44 13.9l-55.29 55.29c-3.67 3.67-9.24 4.58-13.9 2.37-21.99-10.23-46.5-16.04-72.32-16.04-82.78 0-151.81 58.8-167.62 136.92-1.15 5.65-6.19 9.7-11.99 9.7h-71.86c-5.04 0-9.62-3.05-11.38-7.79-13.82-36.65-49.1-62.77-90.49-63.23-53.91-0.46-98.36 43.3-98.74 97.13-0.38 54.29 43.53 98.43 97.74 98.43 43.3 0 80.03-28.18 92.86-67.12 1.68-5.04 6.34-8.48 11.61-8.48h70.25c5.8 0 10.84 4.05 11.99 9.7 15.81 78.12 84.84 136.92 167.62 136.92 14.59 0 28.79-1.83 42.3-5.27 5.27-1.37 10.84 0.99 13.52 5.73l35.13 60.78c-20.16 17.87-32.91 44.06-32.91 73.16 0 54.14 44.29 98.13 98.43 97.74 53.22-0.38 96.37-43.3 97.06-96.45 0.69-53.53-43.53-98.74-97.06-99.04-4.73 0-9.39 0.31-13.97 0.92-4.96 0.69-9.77-1.68-12.29-5.96l-29.4-50.93a12.227 12.227 0 0 1 3.21-15.81c40.78-31.23 67.05-80.49 67.05-135.85 0-43.68-16.34-83.46-43.3-113.7-4.28-4.81-4.05-12.14 0.53-16.72l47.73-47.73c3.67-3.67 9.24-4.66 13.9-2.44 12.82 6.02 27.1 9.46 42.22 9.46z m0-146.62c26.96 0 48.87 21.92 48.87 48.87s-21.92 48.87-48.87 48.87-48.87-21.92-48.87-48.87 21.91-48.87 48.87-48.87zM162.19 577.47c-26.96 0-48.87-21.92-48.87-48.87 0-26.96 21.92-48.87 48.87-48.87s48.87 21.92 48.87 48.87c0 26.95-21.91 48.87-48.87 48.87z m510.1 205.41c26.96 0 48.87 21.92 48.87 48.87s-21.92 48.87-48.87 48.87-48.87-21.92-48.87-48.87 21.92-48.87 48.87-48.87z m-33.6-256.58c0 32.61-12.68 63.3-35.81 86.37-23.06 23.06-53.76 35.81-86.37 35.81-32.61 0-63.3-12.68-86.37-35.81-23.06-23.06-35.81-53.76-35.81-86.37 0-32.61 12.68-63.3 35.81-86.37 23.06-23.14 53.76-35.81 86.37-35.81 32.61 0 63.3 12.68 86.37 35.81 23.14 23.07 35.81 53.77 35.81 86.37z" fill="#1677FF" p-id="23377"></path></svg>